<svg width="32" height="30" viewBox="0 0 32 30" fill="none" xmlns="http://www.w3.org/2000/svg">
<path d="M15.989 0H16.021C17.218 0 18.328 0.401 19.218 1.073H19.223C19.8384 1.53666 20.3463 2.12782 20.712 2.806L26.665 13.166L26.701 13.249L31.258 21.156C31.743 21.973 31.998 22.911 31.998 23.869C31.998 24.62 31.842 25.338 31.561 25.989L31.566 26.01C31.3535 26.4928 31.069 26.9406 30.722 27.338C30.3261 27.8002 29.8539 28.1912 29.326 28.494C28.538 28.9521 27.6445 29.1978 26.733 29.207H26.644C25.4898 29.208 24.3669 28.8312 23.447 28.134H23.442C22.8266 27.6703 22.3187 27.0792 21.953 26.401L16 16.041L15.964 15.958L11.385 8.015C10.9128 7.20195 10.6647 6.27822 10.666 5.338C10.666 4.775 10.754 4.229 10.917 3.718L10.926 3.686L10.942 3.645C11.01 3.437 11.098 3.197 11.098 3.197C11.3079 2.72012 11.5887 2.27777 11.931 1.885L12.015 1.786L12.035 1.765V1.76H12.04L12.051 1.744L12.062 1.74C12.4314 1.3334 12.8619 0.986901 13.338 0.713C14.1261 0.254878 15.0195 0.00919696 15.931 0H15.989ZM5.34402 29.208H5.26502C4.35364 29.1981 3.46033 28.9525 2.67202 28.495C2.14002 28.192 1.67202 27.798 1.27602 27.339C0.929079 26.9416 0.6445 26.4938 0.432021 26.011L0.437021 25.99C0.146734 25.321 -0.00204971 24.5992 2.13276e-05 23.87C2.13276e-05 22.875 0.271021 21.949 0.740021 21.157L5.29702 13.25L5.33302 13.167L9.38502 6.12C9.48402 6.979 9.74902 7.823 10.177 8.593L10.254 8.724L14.754 16.531V16.516L14.843 16.708L15.228 17.385L10.045 26.401C9.67927 27.0791 9.17135 27.6703 8.55602 28.134H8.55102C7.63133 28.8316 6.50834 29.2085 5.35402 29.207L5.34402 29.208Z" fill="white"/>
</svg>
